<svg width="50" height="50" viewBox="0 0 50 50" fill="none" xmlns="http://www.w3.org/2000/svg">
<path d="M31.9417 18.0584C35.775 18.0584 38.8833 14.948 38.8833 11.1188C38.8833 7.28754 35.775 4.17712 31.9417 4.17712H25H18.0583C14.225 4.17712 11.1167 7.28754 11.1167 11.1188C11.1167 14.948 14.225 18.0584 18.0583 18.0584C14.225 18.0584 11.1167 21.1688 11.1167 25.0021C11.1167 28.8334 14.225 31.9438 18.0583 31.9438C14.225 31.9438 11.1167 35.0542 11.1167 38.8855C11.1167 42.7188 14.225 45.8271 18.0583 45.8271C21.8917 45.8271 25 42.7146 25 38.8834V31.9417V25V18.0584H31.9417Z" fill="#FF7C1F"/>
<path d="M31.9417 31.9417C35.7754 31.9417 38.8833 28.8338 38.8833 25C38.8833 21.1662 35.7754 18.0583 31.9417 18.0583C28.1079 18.0583 25 21.1662 25 25C25 28.8338 28.1079 31.9417 31.9417 31.9417Z" fill="#FF7C1F"/>
</svg>
