<svg width="50" height="50" viewBox="0 0 50 50" fill="none" xmlns="http://www.w3.org/2000/svg">
<path d="M45.0417 23.1417L26.8521 4.95625C25.8042 3.91042 24.1062 3.91042 23.0542 4.95625L19.2854 8.72917L24.075 13.5208C25.1937 13.1479 26.4687 13.3979 27.3542 14.2854C28.25 15.1813 28.4958 16.4708 28.1146 17.5833L32.7271 22.2021C33.8479 21.8146 35.1354 22.0667 36.025 22.9563C37.2771 24.2063 37.2771 26.225 36.025 27.475C34.7771 28.725 32.7625 28.725 31.5125 27.475C30.5771 26.5375 30.3417 25.1563 30.8104 24.0125L26.4896 19.7146V31.0417C26.7937 31.1896 27.0854 31.3938 27.3375 31.6458C28.5771 32.8979 28.5771 34.9125 27.3375 36.1583C26.0896 37.4104 24.0583 37.4104 22.8083 36.1583C21.5604 34.9104 21.5604 32.8979 22.8083 31.65C23.125 31.3375 23.4792 31.1 23.8583 30.9438V19.5063C23.4812 19.3479 23.1229 19.1188 22.8167 18.8104C21.8708 17.8646 21.6437 16.4813 22.1292 15.3229L17.4208 10.5917L4.94791 23.0542C3.90625 24.1042 3.90625 25.8042 4.94791 26.8542L23.1375 45.0396C24.1854 46.0896 25.8833 46.0896 26.9313 45.0396L45.0354 26.9375C46.0917 25.8938 46.0917 24.1917 45.0417 23.1417Z" fill="#FF7C1F"/>
</svg>
