<svg width="50" height="50" viewBox="0 0 50 50" fill="none" xmlns="http://www.w3.org/2000/svg">
<path d="M25 4.16663C36.5042 4.16663 45.8333 13.4958 45.8333 25C45.8333 36.5041 36.5042 45.8333 25 45.8333C13.4958 45.8333 4.16667 36.5041 4.16667 25C4.16667 13.4958 13.4958 4.16663 25 4.16663ZM20.8604 31.9416C21.1646 33.0604 21.1313 34.1062 20.8167 35.052L20.7042 35.3645C20.6604 35.4687 20.6146 35.5729 20.5688 35.6687C20.3271 36.1708 20.0042 36.6395 19.6063 37.075C18.3938 38.3937 16.7021 38.8916 15.9771 38.4729C15.1958 38.0166 15.5854 36.1562 16.9917 34.6708C18.5042 33.077 20.6708 32.05 20.6708 32.05V32.0458L20.8604 31.9416ZM38.0646 13.0854C37.1229 9.38329 30.9875 8.16454 25.1792 10.2291C21.7292 11.4562 17.9854 13.3854 15.2979 15.902C12.0979 18.8895 11.5896 21.4937 11.7979 22.5812C12.5375 26.4208 17.8 28.9312 19.9646 30.7937V30.8041C19.325 31.1145 14.6563 33.4583 13.5646 35.8833C12.3917 38.4354 13.7479 40.2604 14.6333 40.4916C17.3688 41.2479 20.1792 39.8666 21.6917 37.6291C23.1479 35.4395 23.0208 32.6291 22.3938 31.2479C23.2542 31.0145 24.2667 30.9104 25.5688 31.0687C29.2167 31.4833 29.9458 33.777 29.7854 34.7145C29.6313 35.65 28.8771 36.1958 28.6167 36.352C28.3542 36.5104 28.2771 36.5625 28.3021 36.6666C28.3292 36.8208 28.4604 36.8208 28.6667 36.7979C28.9542 36.7458 30.5708 36.0166 30.6479 34.2416C30.725 32.0041 28.5896 29.5062 24.7875 29.5541C23.225 29.5833 22.2333 29.7125 21.5313 30C21.4792 29.9208 21.425 29.8687 21.3479 29.8166C19.0042 27.2895 14.6542 25.5187 14.8375 22.1604C14.8896 20.9354 15.3313 17.7083 23.1708 13.802C29.6042 10.5979 34.7354 11.4854 35.6229 13.4375C36.8938 16.2208 32.8854 21.4062 26.1938 22.1604C23.6417 22.4479 22.3146 21.4583 21.9729 21.0916C21.6104 20.7 21.5604 20.675 21.4292 20.7562C21.2188 20.8604 21.35 21.1979 21.4292 21.4083C21.6375 21.927 22.4438 22.8416 23.8521 23.3083C25.075 23.7 28.0688 23.9312 31.6646 22.527C35.7 20.9666 38.85 16.6145 37.9396 12.9687L38.0646 13.0854Z" fill="#FF7C1F"/>
</svg>
